<svg xmlns="http://www.w3.org/2000/svg" viewBox="0 0 800 520"><defs><linearGradient id="g" x1="0" y1="0" x2="1" y2="1"><stop stop-color="#071420"/><stop offset="1" stop-color="#0f3c5d"/></linearGradient></defs><rect width="800" height="520" rx="30" fill="url(#g)"/>
<rect x="145" y="150" width="220" height="300" rx="24" fill="#0c2235" stroke="#2b698e" stroke-width="5"/><rect x="190" y="195" width="130" height="95" rx="12" fill="#153b58"/><circle cx="255" cy="342" r="35" fill="#39c8ff" opacity=".15"/><circle cx="255" cy="342" r="13" fill="#39c8ff"/>
<path d="M505 210c-42 0-76 34-76 76v65c0 42 34 76 76 76h18c42 0 76-34 76-76v-65c0-42-34-76-76-76z" fill="#0b2032" stroke="#39c8ff" stroke-width="5"/><path d="M476 260c26 18 50 18 76 0M473 372c28-17 55-17 83 0" fill="none" stroke="#39c8ff" stroke-width="8" stroke-linecap="round"/>
<path d="M384 260h62M384 320h62" stroke="#74d9ff" stroke-width="6" stroke-linecap="round" opacity=".8"/>
<text x="70" y="70" fill="#fff" font-family="Arial" font-size="34" font-weight="700">INTERFONES E PABX</text><text x="70" y="108" fill="#9edcff" font-family="Arial" font-size="18">Comunicação clara entre portaria, casa e empresa</text></svg>
